<?xml version="1.0" encoding="UTF-8"?>
<svg version="1.1" xmlns="http://www.w3.org/2000/svg" width="597" height="418">
<path d="M0 0 C2 1 4 2 6 3 C6.63228516 3.31541748 7.26457031 3.63083496 7.91601562 3.95581055 C11.18989899 5.589941 14.45958648 7.23121611 17.71875 8.89453125 C21.79358062 10.96871916 25.89191808 12.99258066 30 15 C30.76151367 15.37495605 31.52302734 15.74991211 32.30761719 16.13623047 C71.75742158 35.38023298 134.41257462 61.44394569 178.1015625 46.97265625 C179.09929687 46.61042969 180.09703125 46.24820313 181.125 45.875 C191.50144354 42.20948342 200.09131951 43.63081805 210 48 C210 48.66 210 49.32 210 50 C208.95996826 50.47719482 207.91993652 50.95438965 206.84838867 51.44604492 C189.02937288 59.62619269 171.22234856 67.81623251 153.58374023 76.38012695 C145.84461035 80.13148549 138.05982462 83.77336067 130.25 87.375 C116.92242277 93.52640526 103.71370746 99.90843034 90.5123291 106.32475281 C84.39238838 109.29813812 78.26157754 112.24860146 72.125 115.1875 C70.77184692 115.8374292 70.77184692 115.8374292 69.39135742 116.50048828 C66.93213843 117.67697155 64.46742571 118.8408439 62 120 C61.15663086 120.40299316 60.31326172 120.80598633 59.44433594 121.22119141 C58.23052246 121.78652588 58.23052246 121.78652588 56.9921875 122.36328125 C56.27144043 122.70270752 55.55069336 123.04213379 54.80810547 123.3918457 C54.21143066 123.59253662 53.61475586 123.79322754 53 124 C52.01 123.505 52.01 123.505 51 123 C58.38200306 116.72944459 66.0598574 110.95157805 73.87280273 105.23486328 C79.61505799 101.03072225 85.29150086 96.7582799 90.91015625 92.390625 C93.15594592 90.65304816 95.4109598 88.93603999 97.68359375 87.234375 C98.59359131 86.54843262 98.59359131 86.54843262 99.52197266 85.84863281 C100.6911123 84.96803186 101.86382706 84.09215195 103.04052734 83.22167969 C104.39723454 82.19477744 105.70422274 81.10278916 107 80 C107 79.34 107 78.68 107 78 C105.9584375 77.59910156 104.916875 77.19820313 103.84375 76.78515625 C73.11217925 64.70299834 47.90792763 44.25171807 23 23 C22.31550781 22.41863281 21.63101563 21.83726562 20.92578125 21.23828125 C16.19017534 17.16011303 11.59684662 12.92059429 7 8.6875 C6.31566895 8.06383545 5.63133789 7.4401709 4.92626953 6.79760742 C4.29060059 6.20826416 3.65493164 5.6189209 3 5.01171875 C2.4225 4.48022217 1.845 3.94872559 1.25 3.40112305 C0 2 0 2 0 0 Z " fill="#EA4145" transform="translate(193,146)"/>
<path d="M0 0 C2 1 4 2 6 3 C6.63228516 3.31541748 7.26457031 3.63083496 7.91601562 3.95581055 C11.18989899 5.589941 14.45958648 7.23121611 17.71875 8.89453125 C21.79358062 10.96871916 25.89191808 12.99258066 30 15 C30.76151367 15.37495605 31.52302734 15.74991211 32.30761719 16.13623047 C69.84429025 34.4469887 112.2437868 47.47528533 154 50 C154 50.33 154 50.66 154 51 C147.07 51 140.14 51 133 51 C133 50.34 133 49.68 133 49 C129.04 49 125.08 49 121 49 C121 48.34 121 47.68 121 47 C119.62328125 47.03480469 119.62328125 47.03480469 118.21875 47.0703125 C111.46209717 47.16967504 105.41809197 47.22164722 99 45 C98.34 44.34 97.68 43.68 97 43 C94.40706758 42.36630127 91.87340386 41.83574118 89.25 41.375 C88.54617188 41.2409375 87.84234375 41.106875 87.1171875 40.96875 C83.0256116 40.22344435 79.1773014 39.85550215 75 40 C75 39.34 75 38.68 75 38 C71.94736336 37.01879536 70.05263664 37.01879536 67 38 C66.67 37.01 66.34 36.02 66 35 C60.94606155 31.83714136 53.90242921 30.47919742 48 31 C47.01 31.33 46.02 31.66 45 32 C45 32.66 45 33.32 45 34 C45.99 34.495 45.99 34.495 47 35 C47 35.99 47 36.98 47 38 C47.99 38 48.98 38 50 38 C51.66666667 38 53.33333333 38 55 38 C55.268125 39.134375 55.53625 40.26875 55.8125 41.4375 C56.204375 42.613125 56.59625 43.78875 57 45 C57.99 45.33 58.98 45.66 60 46 C60 46.66 60 47.32 60 48 C60.99 47.67 61.98 47.34 63 47 C63.061875 47.5775 63.12375 48.155 63.1875 48.75 C64.72394643 53.00477474 68.46979986 54.71989426 72.3125 56.75 C73.199375 57.1625 74.08625 57.575 75 58 C75 58.66 75 59.32 75 60 C76.11375 60.185625 76.11375 60.185625 77.25 60.375 C82.00029675 61.4546129 84.77978471 63.31975395 88 67 C88 67.66 88 68.32 88 69 C83.8293209 67.74894851 80.44309797 66.22354724 76.8046875 63.83984375 C75.84723633 63.2154541 74.88978516 62.59106445 73.90332031 61.94775391 C72.90397461 61.28437012 71.90462891 60.62098633 70.875 59.9375 C69.3295752 58.91922119 69.3295752 58.91922119 67.75292969 57.88037109 C51.91498965 47.37765872 37.4391605 35.3196507 23 23 C22.31550781 22.41863281 21.63101563 21.83726562 20.92578125 21.23828125 C16.19017534 17.16011303 11.59684662 12.92059429 7 8.6875 C6.31566895 8.06383545 5.63133789 7.4401709 4.92626953 6.79760742 C4.29060059 6.20826416 3.65493164 5.6189209 3 5.01171875 C2.4225 4.48022217 1.845 3.94872559 1.25 3.40112305 C0 2 0 2 0 0 Z " fill="#D80F53" transform="translate(193,146)"/>
<path d="M0 0 C0 0.66 0 1.32 0 2 C-1.69358643 2.77863403 -1.69358643 2.77863403 -3.42138672 3.57299805 C-7.65278204 5.51893209 -11.88317342 7.46704046 -16.11328125 9.41577148 C-17.93625475 10.25522242 -19.75949171 11.09410145 -21.58300781 11.93237305 C-24.22011546 13.14477823 -26.85643733 14.35886538 -29.4921875 15.57421875 C-30.33851746 15.96439178 -31.18484741 16.35456482 -32.05682373 16.75656128 C-37.20447858 19.1398055 -42.30194439 21.59470614 -47.32470703 24.23364258 C-49 25 -49 25 -51 25 C-50.67 24.01 -50.34 23.02 -50 22 C-48.68 22 -47.36 22 -46 22 C-45.67 20.35 -45.34 18.7 -45 17 C-44.01 16.67 -43.02 16.34 -42 16 C-41.67 15.34 -41.34 14.68 -41 14 C-38.49609375 13.5859375 -38.49609375 13.5859375 -35.4375 13.375 C-33.91962891 13.26285156 -33.91962891 13.26285156 -32.37109375 13.1484375 C-31.58863281 13.09945312 -30.80617188 13.05046875 -30 13 C-29.505 11.515 -29.505 11.515 -29 10 C-28.34 10 -27.68 10 -27 10 C-27.495 7.03 -27.495 7.03 -28 4 C-28.91007812 4.31582031 -29.82015625 4.63164062 -30.7578125 4.95703125 C-36.04121199 6.46486289 -41.41453125 6.50026448 -46.875 6.6875 C-48.46054687 6.75807617 -48.46054687 6.75807617 -50.078125 6.83007812 C-55.81945312 7.0551559 -55.81945312 7.0551559 -58 7 C-58.33 6.67 -58.66 6.34 -59 6 C-61.68862664 5.60006314 -64.36352217 5.24865457 -67.0625 4.9375 C-67.82111328 4.84662109 -68.57972656 4.75574219 -69.36132812 4.66210938 C-71.2404301 4.4375626 -73.12016095 4.21829022 -75 4 C-75 3.67 -75 3.34 -75 3 C-73.92854736 2.970271 -73.92854736 2.970271 -72.83544922 2.93994141 C-50.49524841 2.74237989 -50.49524841 2.74237989 -28.875 -2.125 C-18.49855646 -5.79051658 -9.90868049 -4.36918195 0 0 Z " fill="#F4743E" transform="translate(403,194)"/>
<path d="M0 0 C12.26923077 1.26923077 12.26923077 1.26923077 17 6 C19.60611077 6.72197162 19.60611077 6.72197162 22 7 C23 10 23 10 21.6875 12.6875 C21.130625 13.450625 20.57375 14.21375 20 15 C19.34 15 18.68 15 18 15 C17.95875 15.7425 17.9175 16.485 17.875 17.25 C16.64681441 21.11001185 14.40496514 21.98481655 11 24 C10.34 24.66 9.68 25.32 9 26 C7.68 26 6.36 26 5 26 C4.505 28.475 4.505 28.475 4 31 C9.4392367 29.73183752 9.4392367 29.73183752 14.6875 27.875 C17.26859937 26.8983678 19.26325055 26.84361432 22 27 C18.58571556 29.82098607 14.83277184 31.63335296 10.83984375 33.4765625 C10.14133804 33.80361679 9.44283234 34.13067108 8.72315979 34.46763611 C6.46333499 35.52457446 4.20056563 36.57502098 1.9375 37.625 C-0.38114929 38.70542684 -2.69925538 39.78701261 -5.01730347 40.86872864 C-6.54611147 41.58201476 -8.07518339 42.29473548 -9.60452271 43.00688171 C-13.88622575 45.00295096 -18.15272514 47.02602208 -22.40234375 49.08984375 C-23.28591553 49.51765137 -24.1694873 49.94545898 -25.07983398 50.38623047 C-26.65393918 51.15129037 -28.22524362 51.92214918 -29.79321289 52.69970703 C-31.50135918 53.52581612 -33.24725031 54.27330303 -35 55 C-35.66 54.67 -36.32 54.34 -37 54 C-29.61799694 47.72944459 -21.9401426 41.95157805 -14.12719727 36.23486328 C-8.38494201 32.03072225 -2.70849914 27.7582799 2.91015625 23.390625 C5.15594592 21.65304816 7.4109598 19.93603999 9.68359375 18.234375 C10.29025879 17.77708008 10.89692383 17.31978516 11.52197266 16.84863281 C12.6911123 15.96803186 13.86382706 15.09215195 15.04052734 14.22167969 C16.39723454 13.19477744 17.70422274 12.10278916 19 11 C19 10.34 19 9.68 19 9 C17.79601562 8.51789063 16.59203125 8.03578125 15.3515625 7.5390625 C13.77593382 6.90130804 12.20041886 6.26327259 10.625 5.625 C9.8309375 5.30789062 9.036875 4.99078125 8.21875 4.6640625 C7.45820313 4.3546875 6.69765625 4.0453125 5.9140625 3.7265625 C5.2123291 3.44377441 4.5105957 3.16098633 3.78759766 2.86962891 C2 2 2 2 0 0 Z " fill="#D83951" transform="translate(281,215)"/>
<path d="M0 0 C3.67819558 0.63825799 6.96844351 1.65212408 10.4453125 3.00390625 C42.31333442 15.21083981 74.79088081 24.66573069 109 27 C109 27.33 109 27.66 109 28 C102.07 28 95.14 28 88 28 C88 27.34 88 26.68 88 26 C84.04 26 80.08 26 76 26 C76 25.34 76 24.68 76 24 C75.0821875 24.02320313 74.164375 24.04640625 73.21875 24.0703125 C66.46209717 24.16967504 60.41809197 24.22164722 54 22 C53.34 21.34 52.68 20.68 52 20 C49.40706758 19.36630127 46.87340386 18.83574118 44.25 18.375 C43.54617188 18.2409375 42.84234375 18.106875 42.1171875 17.96875 C38.0256116 17.22344435 34.1773014 16.85550215 30 17 C30 16.34 30 15.68 30 15 C26.94736336 14.01879536 25.05263664 14.01879536 22 15 C21.67 14.01 21.34 13.02 21 12 C18.26190326 10.25866655 15.67073782 9.65707587 12.5 9.125 C8.50777457 8.30692102 6.66251549 7.1745377 4 4 C3.01 3.67 2.02 3.34 1 3 C1 3.66 1 4.32 1 5 C-1.475 4.01 -1.475 4.01 -4 3 C-2.68 2.67 -1.36 2.34 0 2 C0 1.34 0 0.68 0 0 Z " fill="#C64671" transform="translate(238,169)"/>
<path d="M0 0 C5.20833333 0.52083333 10.41666667 1.04166667 15.625 1.5625 C16.46289062 1.64628906 17.30078125 1.73007813 18.1640625 1.81640625 C18.76992188 1.87699219 19.37578125 1.93757812 20 2 C19 5 19 5 16.625 6.1875 C14 7 14 7 11 7 C11 7.99 11 8.98 11 10 C10.195625 10.268125 9.39125 10.53625 8.5625 10.8125 C7.716875 11.204375 6.87125 11.59625 6 12 C5.67 12.99 5.34 13.98 5 15 C2.671875 15.87890625 2.671875 15.87890625 -0.25 16.5625 C-3.16252691 17.25914495 -5.87699474 17.94981965 -8.65234375 19.08203125 C-11.53668168 20.20985058 -13.93094801 20.1427466 -17 20 C-16.8125 17.625 -16.8125 17.625 -16 15 C-13.6875 13.875 -13.6875 13.875 -11 13 C-7.24712381 10.46128964 -4.45269476 8.35808428 -3 4 C-2.34 4 -1.68 4 -1 4 C-0.67 2.68 -0.34 1.36 0 0 Z " fill="#DF1D50" transform="translate(302,226)"/>
<path d="M0 0 C0.33 1.32 0.66 2.64 1 4 C3.31 4.33 5.62 4.66 8 5 C8 4.34 8 3.68 8 3 C11.465 2.505 11.465 2.505 15 2 C11.52035374 4.8639359 7.66974598 6.7737878 3.63671875 8.72265625 C2.57140678 9.24187904 2.57140678 9.24187904 1.48457336 9.77159119 C-0.01468939 10.50068296 -1.51502487 11.22757247 -3.01635742 11.95239258 C-5.29773869 13.0553634 -7.57379302 14.16880392 -9.84960938 15.28320312 C-11.31218848 15.99282992 -12.7750696 16.70183464 -14.23828125 17.41015625 C-15.2480175 17.90552635 -15.2480175 17.90552635 -16.27815247 18.41090393 C-20.45414469 20.41421972 -24.5124389 21.84549505 -29 23 C-20.53851423 13.97441518 -10.07380715 7.08359927 0 0 Z " fill="#D4555D" transform="translate(273,247)"/>
<path d="M0 0 C6 3 6 3 7.87207031 3.93823242 C11.38263602 5.69658242 14.89807107 7.4440966 18.421875 9.17578125 C19.14375 9.53220703 19.865625 9.88863281 20.609375 10.25585938 C22.01924699 10.95179071 23.43067377 11.64458244 24.84375 12.33398438 C27.58125826 13.68905096 29.82447435 14.82447435 32 17 C28.67465243 18.10844919 26.37817425 17.84454356 23 17 C22.67 18.32 22.34 19.64 22 21 C23.32 21 24.64 21 26 21 C26 20.34 26 19.68 26 19 C26.66 19 27.32 19 28 19 C28.04125 19.928125 28.0825 20.85625 28.125 21.8125 C28.68859031 25.28947638 28.68859031 25.28947638 32.0625 26.875 C33.031875 27.24625 34.00125 27.6175 35 28 C35 29.32 35 30.64 35 32 C30.76158626 30.26466931 27.59954054 27.28274246 24.1875 24.3125 C23.56020996 23.77085205 22.93291992 23.2292041 22.28662109 22.67114258 C18.57381439 19.44187992 14.99638873 16.13983938 11.58984375 12.5859375 C9.10841543 10.11060606 6.40382086 7.90216295 3.69921875 5.67578125 C1.90357214 3.90490218 0.98888231 2.30404558 0 0 Z " fill="#C4376F" transform="translate(193,146)"/>
<path d="M0 0 C0 0.66 0 1.32 0 2 C-4.65850805 4.16458613 -9.32158425 6.3188725 -13.98925781 8.46362305 C-15.57748143 9.19516158 -17.16440433 9.92953082 -18.75 10.66674805 C-21.02530781 11.72405515 -23.30505236 12.77119601 -25.5859375 13.81640625 C-26.29744965 14.14967422 -27.00896179 14.4829422 -27.74203491 14.8263092 C-29.46842209 15.61140752 -31.23189672 16.31399501 -33 17 C-33.66 16.67 -34.32 16.34 -35 16 C-32.7448078 13.7448078 -30.9952413 13.02276532 -28 12 C-27.01 12 -26.02 12 -25 12 C-25 11.34 -25 10.68 -25 10 C-21.62902617 8.50178941 -19.79557881 8 -16 8 C-16 7.34 -16 6.68 -16 6 C-13.23776722 3.23776722 -10.79293383 3.42143709 -7 3 C-7.495 1.515 -7.495 1.515 -8 0 C-10.39614126 -0.05425226 -12.79103853 -0.09379027 -15.1875 -0.125 C-15.86103516 -0.14175781 -16.53457031 -0.15851563 -17.22851562 -0.17578125 C-21.35617441 -0.21605109 -24.25694753 0.3411472 -28 2 C-35.18140483 3.57236905 -41.76054053 4.41950186 -49 3 C-49 2.67 -49 2.34 -49 2 C-48.12859375 1.90203125 -47.2571875 1.8040625 -46.359375 1.703125 C-40.26284407 0.93775965 -34.64378614 0.03255662 -28.875 -2.125 C-18.49855646 -5.79051658 -9.90868049 -4.36918195 0 0 Z " fill="#D9916D" transform="translate(403,194)"/>
<path d="M0 0 C0.85335938 0.21914062 1.70671875 0.43828125 2.5859375 0.6640625 C37.39436296 9.65561759 37.39436296 9.65561759 73 14 C73 14.33 73 14.66 73 15 C66.07 15 59.14 15 52 15 C52 14.34 52 13.68 52 13 C48.04 13 44.08 13 40 13 C40 12.34 40 11.68 40 11 C38.62328125 11.03480469 38.62328125 11.03480469 37.21875 11.0703125 C30.46209717 11.16967504 24.41809197 11.22164722 18 9 C17.34 8.34 16.68 7.68 16 7 C13.34280163 6.31822002 13.34280163 6.31822002 10.375 5.875 C9.37210937 5.70742187 8.36921875 5.53984375 7.3359375 5.3671875 C6.56507813 5.24601563 5.79421875 5.12484375 5 5 C4.67 4.01 4.34 3.02 4 2 C2.68 2 1.36 2 0 2 C0 1.34 0 0.68 0 0 Z " fill="#C86072" transform="translate(274,182)"/>
<path d="M0 0 C2.97 0.495 2.97 0.495 6 1 C6 1.66 6 2.32 6 3 C8.31 3.33 10.62 3.66 13 4 C13 4.66 13 5.32 13 6 C13.99 5.67 14.98 5.34 16 5 C16.061875 5.5775 16.12375 6.155 16.1875 6.75 C17.72394643 11.00477474 21.46979986 12.71989426 25.3125 14.75 C26.199375 15.1625 27.08625 15.575 28 16 C28 16.66 28 17.32 28 18 C28.7425 18.12375 29.485 18.2475 30.25 18.375 C35.00029675 19.4546129 37.77978471 21.31975395 41 25 C41 25.66 41 26.32 41 27 C36.8293209 25.74894851 33.44309797 24.22354724 29.8046875 21.83984375 C28.8463501 21.21480957 27.8880127 20.58977539 26.90063477 19.94580078 C25.90217529 19.28306152 24.90371582 18.62032227 23.875 17.9375 C22.85269287 17.26444824 21.83038574 16.59139648 20.77709961 15.89794922 C6.11188793 6.17867493 6.11188793 6.17867493 0 1 C0 0.67 0 0.34 0 0 Z " fill="#C84E6C" transform="translate(240,188)"/>
<path d="M0 0 C3.22114043 -0.08947612 5.90489493 0.1295017 9 1 C9.721875 1.103125 10.44375 1.20625 11.1875 1.3125 C15.35783001 2.331914 19.12210482 4.18355672 23 6 C22.01 6.66 21.02 7.32 20 8 C17.95703125 7.5390625 17.95703125 7.5390625 15.8125 6.625 C14.73935547 6.18027344 14.73935547 6.18027344 13.64453125 5.7265625 C13.10183594 5.48679688 12.55914062 5.24703125 12 5 C12.33 7.31 12.66 9.62 13 12 C10.69 11.01 8.38 10.02 6 9 C6 7.02 6 5.04 6 3 C5.34 3 4.68 3 4 3 C4 3.66 4 4.32 4 5 C2.68 5 1.36 5 0 5 C0 3.35 0 1.7 0 0 Z " fill="#D10A54" transform="translate(215,162)"/>
<path d="M0 0 C15.36541266 7.48848061 15.36541266 7.48848061 22 12 C22 12.33 22 12.66 22 13 C20.02 13 18.04 13 16 13 C16 13.66 16 14.32 16 15 C16.99 15.33 17.98 15.66 19 16 C18.34 16.66 17.68 17.32 17 18 C16.5875 17.57589844 16.175 17.15179688 15.75 16.71484375 C11.89994761 12.80463429 7.93664311 9.16395572 3.69921875 5.67578125 C1.90357214 3.90490218 0.98888231 2.30404558 0 0 Z " fill="#AA3661" transform="translate(193,146)"/>
<path d="M0 0 C0.495 0.99 0.495 0.99 1 2 C0.19175781 2.04898438 -0.61648438 2.09796875 -1.44921875 2.1484375 C-2.51785156 2.22320312 -3.58648437 2.29796875 -4.6875 2.375 C-5.74324219 2.44460937 -6.79898437 2.51421875 -7.88671875 2.5859375 C-10.94452852 2.99262236 -13.16864067 3.82764028 -16 5 C-23.18140483 6.57236905 -29.76054053 7.41950186 -37 6 C-37 5.67 -37 5.34 -37 5 C-35.62328125 4.83564453 -35.62328125 4.83564453 -34.21875 4.66796875 C-26.43383959 3.81343137 -26.43383959 3.81343137 -19.0625 1.375 C-13.24725605 -1.16837043 -6.22763671 -0.21894035 0 0 Z " fill="#DE825D" transform="translate(391,191)"/>
<path d="M0 0 C11.22 0 22.44 0 34 0 C33.34 0.99 32.68 1.98 32 3 C29.40723889 3.41201652 27.04242692 3.64841511 24.4375 3.75 C23.73947266 3.79253906 23.04144531 3.83507812 22.32226562 3.87890625 C20.55014699 3.97172333 18.77452789 3.9916197 17 4 C16.67 3.67 16.34 3.34 16 3 C13.31137336 2.60006314 10.63647783 2.24865457 7.9375 1.9375 C7.17888672 1.84662109 6.42027344 1.75574219 5.63867188 1.66210938 C3.7595699 1.4375626 1.87983905 1.21829022 0 1 C0 0.67 0 0.34 0 0 Z " fill="#D86751" transform="translate(328,197)"/>
<path d="M0 0 C1.65 0 3.3 0 5 0 C2.85321187 1.74923478 1.03074239 2.98800297 -1.5625 4 C-3.98791081 4.79712118 -3.98791081 4.79712118 -5.2734375 6.36328125 C-7.61432325 8.5823562 -10.17420761 9.76616535 -13.0625 11.1875 C-14.12597656 11.71730469 -15.18945312 12.24710938 -16.28515625 12.79296875 C-19 14 -19 14 -21 14 C-20.67 13.01 -20.34 12.02 -20 11 C-18.68 11 -17.36 11 -16 11 C-15.67 9.35 -15.34 7.7 -15 6 C-14.01 5.67 -13.02 5.34 -12 5 C-11.67 4.34 -11.34 3.68 -11 3 C-8.49609375 2.5859375 -8.49609375 2.5859375 -5.4375 2.375 C-4.42558594 2.30023438 -3.41367187 2.22546875 -2.37109375 2.1484375 C-1.58863281 2.09945312 -0.80617188 2.05046875 0 2 C0 1.34 0 0.68 0 0 Z " fill="#EC6E46" transform="translate(373,205)"/>
<path d="M0 0 C0 0.99 0 1.98 0 3 C0.66 3.66 1.32 4.32 2 5 C-0.78556882 6.36698387 -3.57931328 7.71634538 -6.375 9.0625 C-7.1690625 9.45244141 -7.963125 9.84238281 -8.78125 10.24414062 C-9.92207031 10.79038086 -9.92207031 10.79038086 -11.0859375 11.34765625 C-12.1385376 11.85824585 -12.1385376 11.85824585 -13.21240234 12.37915039 C-13.80230957 12.58403076 -14.3922168 12.78891113 -15 13 C-15.66 12.67 -16.32 12.34 -17 12 C-15.25084555 10.56147125 -13.50064205 9.12421802 -11.75 7.6875 C-10.77546875 6.88699219 -9.8009375 6.08648437 -8.796875 5.26171875 C-2.29015544 0 -2.29015544 0 0 0 Z " fill="#D3877D" transform="translate(261,257)"/>
<path d="M0 0 C5.20833333 0.52083333 10.41666667 1.04166667 15.625 1.5625 C16.46289062 1.64628906 17.30078125 1.73007813 18.1640625 1.81640625 C18.76992188 1.87699219 19.37578125 1.93757812 20 2 C19.67 2.99 19.34 3.98 19 5 C16.93359375 5.94921875 16.93359375 5.94921875 14.4375 6.6875 C13.19806641 7.06455078 13.19806641 7.06455078 11.93359375 7.44921875 C11.29550781 7.63097656 10.65742188 7.81273437 10 8 C9.67 6.35 9.34 4.7 9 3 C6.03 3 3.06 3 0 3 C0 3.66 0 4.32 0 5 C-0.99 4.67 -1.98 4.34 -3 4 C-2.34 4 -1.68 4 -1 4 C-0.67 2.68 -0.34 1.36 0 0 Z " fill="#D71A47" transform="translate(302,226)"/>
<path d="M0 0 C0.66 0.33 1.32 0.66 2 1 C2 1.66 2 2.32 2 3 C5.96 2.34 9.92 1.68 14 1 C11.12481886 3.15638585 9.03860256 4.58822155 5.890625 6.04296875 C5.13652344 6.39423828 4.38242187 6.74550781 3.60546875 7.10742188 C2.43951172 7.64206055 2.43951172 7.64206055 1.25 8.1875 C0.45722656 8.55552734 -0.33554687 8.92355469 -1.15234375 9.30273438 C-3.09963272 10.20599492 -5.04955989 11.1035641 -7 12 C-7 11.01 -7 10.02 -7 9 C-6.21625 8.814375 -5.4325 8.62875 -4.625 8.4375 C-1.60623658 7.16038373 -1.60623658 7.16038373 -0.6875 3.375 C-0.460625 2.26125 -0.23375 1.1475 0 0 Z " fill="#DE6757" transform="translate(337,218)"/>
<path d="M0 0 C2.64 0 5.28 0 8 0 C5.86958607 2.33204609 3.9142326 3.70885681 1.05859375 5.04296875 C0.31029297 5.39423828 -0.43800781 5.74550781 -1.20898438 6.10742188 C-2.37397461 6.64206055 -2.37397461 6.64206055 -3.5625 7.1875 C-4.73329102 7.73954102 -4.73329102 7.73954102 -5.92773438 8.30273438 C-11.7276061 11 -11.7276061 11 -14 11 C-13.67 10.01 -13.34 9.02 -13 8 C-11.35 7.67 -9.7 7.34 -8 7 C-8 6.01 -8 5.02 -8 4 C-5.36 3.34 -2.72 2.68 0 2 C0 1.34 0 0.68 0 0 Z " fill="#C53760" transform="translate(321,229)"/>
<path d="M0 0 C5.81357868 0.87306394 11.62335119 1.75130433 17.4140625 2.765625 C26.28509321 4.31245641 34.99418258 5.53857119 44 6 C44 6.33 44 6.66 44 7 C37.07 7 30.14 7 23 7 C23 6.34 23 5.68 23 5 C19.04 5 15.08 5 11 5 C11 4.34 11 3.68 11 3 C9.741875 3.061875 8.48375 3.12375 7.1875 3.1875 C4.37934854 3.32560581 3.40974822 3.35160213 1.23828125 1.48828125 C0.82964844 0.99714844 0.42101562 0.50601563 0 0 Z " fill="#D58280" transform="translate(303,190)"/>
<path d="M0 0 C2.0839403 0.11443603 4.16716493 0.24195547 6.25 0.375 C7.41015625 0.44460937 8.5703125 0.51421875 9.765625 0.5859375 C12.70694334 0.96248308 14.49949011 1.4774123 17 3 C17 3.66 17 4.32 17 5 C18.32 5 19.64 5 21 5 C21 5.66 21 6.32 21 7 C17.7 7 14.4 7 11 7 C11 6.34 11 5.68 11 5 C7.94736336 4.01879536 6.05263664 4.01879536 3 5 C2.67 4.01 2.34 3.02 2 2 C1.34 2 0.68 2 0 2 C0 1.34 0 0.68 0 0 Z " fill="#CD425C" transform="translate(257,179)"/>
<path d="M0 0 C0 0.66 0 1.32 0 2 C0.67546875 1.84402344 1.3509375 1.68804687 2.046875 1.52734375 C2.93890625 1.33269531 3.8309375 1.13804687 4.75 0.9375 C5.63171875 0.74027344 6.5134375 0.54304687 7.421875 0.33984375 C9.98679028 0.00174128 11.57091639 0.18841365 14 1 C13.26394531 1.19335938 12.52789062 1.38671875 11.76953125 1.5859375 C10.30580078 1.97652344 10.30580078 1.97652344 8.8125 2.375 C7.84957031 2.63023437 6.88664062 2.88546875 5.89453125 3.1484375 C3.00568337 3.94366028 3.00568337 3.94366028 0.34375 5.09375 C-2.53740874 6.20779805 -4.93834655 6.14240249 -8 6 C-7.8125 3.625 -7.8125 3.625 -7 1 C-2.77108434 -1.38554217 -2.77108434 -1.38554217 0 0 Z " fill="#DF3252" transform="translate(293,240)"/>
<path d="M0 0 C-4.17560997 3.28534844 -8.6587484 5.41587206 -13.4375 7.6875 C-14.28376953 8.10322266 -15.13003906 8.51894531 -16.00195312 8.94726562 C-16.82501953 9.33978516 -17.64808594 9.73230469 -18.49609375 10.13671875 C-19.24044678 10.49467529 -19.9847998 10.85263184 -20.75170898 11.22143555 C-23.28839161 12.09986761 -25.334218 12.13993375 -28 12 C-27.67 10.35 -27.34 8.7 -27 7 C-26.67 7.99 -26.34 8.98 -26 10 C-24.02 9.67 -22.04 9.34 -20 9 C-20 8.34 -20 7.68 -20 7 C-18.58774074 6.32404685 -17.16997095 5.65959941 -15.75 5 C-14.56664062 4.443125 -14.56664062 4.443125 -13.359375 3.875 C-11 3 -11 3 -7 3 C-7 2.34 -7 1.68 -7 1 C-4.53721199 -0.231394 -2.7204945 -0.07159196 0 0 Z " fill="#CC6C67" transform="translate(288,249)"/>
<path d="M0 0 C12.26923077 1.26923077 12.26923077 1.26923077 17 6 C19.60611077 6.72197162 19.60611077 6.72197162 22 7 C22.33 7.99 22.66 8.98 23 10 C21.02 10.99 21.02 10.99 19 12 C19 11.01 19 10.02 19 9 C17.79601562 8.51789063 16.59203125 8.03578125 15.3515625 7.5390625 C13.77593382 6.90130804 12.20041886 6.26327259 10.625 5.625 C9.8309375 5.30789062 9.036875 4.99078125 8.21875 4.6640625 C7.07792969 4.2 7.07792969 4.2 5.9140625 3.7265625 C5.2123291 3.44377441 4.5105957 3.16098633 3.78759766 2.86962891 C2 2 2 2 0 0 Z " fill="#CE676E" transform="translate(281,215)"/>
<path d="M0 0 C3.68266103 0.59950296 7.34543185 1.24758891 11 2 C11 2.66 11 3.32 11 4 C10.01 4.495 10.01 4.495 9 5 C9.33 5.66 9.66 6.32 10 7 C6.96663814 7.22893297 4.02534949 7.36475845 1 7 C-1.0625 5 -1.0625 5 -2 3 C-1.34 3 -0.68 3 0 3 C0 2.01 0 1.02 0 0 Z " fill="#DC0A53" transform="translate(227,167)"/>
<path d="M0 0 C0.66 0.33 1.32 0.66 2 1 C1.67 1.99 1.34 2.98 1 4 C-0.33333333 4.33333333 -1.66666667 4.66666667 -3 5 C-3.33 5.99 -3.66 6.98 -4 8 C-6.0625 8.6875 -6.0625 8.6875 -8 9 C-8 10.32 -8 11.64 -8 13 C-10.97 12.505 -10.97 12.505 -14 12 C-9.73412126 7.45890328 -4.96387672 3.75264754 0 0 Z " fill="#CF5C6E" transform="translate(292,232)"/>
<path d="M0 0 C0.66 0 1.32 0 2 0 C2.04125 0.928125 2.0825 1.85625 2.125 2.8125 C2.68859031 6.28947638 2.68859031 6.28947638 6.0625 7.875 C7.5165625 8.431875 7.5165625 8.431875 9 9 C9 10.32 9 11.64 9 13 C5.52224821 11.48446596 3.0442016 9.4226544 0.25 6.875 C-0.54921875 6.15054688 -1.3484375 5.42609375 -2.171875 4.6796875 C-3.07679688 3.84824219 -3.07679688 3.84824219 -4 3 C-2.68 2.67 -1.36 2.34 0 2 C0 1.34 0 0.68 0 0 Z " fill="#BD2C63" transform="translate(219,165)"/>
<path d="M0 0 C0.33 1.65 0.66 3.3 1 5 C-2.13349732 6.04449911 -2.98968256 5.93423645 -6 5 C-6 4.34 -6 3.68 -6 3 C-7.32 2.34 -8.64 1.68 -10 1 C-6.1496895 -1.56687367 -4.41430237 -0.83288724 0 0 Z " fill="#DF3649" transform="translate(287,210)"/>
<path d="M0 0 C1.32 0 2.64 0 4 0 C6 0 8 0 10 0 C10 0.66 10 1.32 10 2 C7.87745145 2.38863565 5.75183172 2.76053209 3.625 3.125 C1.84996094 3.43824219 1.84996094 3.43824219 0.0390625 3.7578125 C-0.96382813 3.83773437 -1.96671875 3.91765625 -3 4 C-5 2 -5 2 -6 0 C-3.45840813 -1.27079593 -2.68301208 -0.71020908 0 0 Z " fill="#EB5F42" transform="translate(342,217)"/>
<path d="M0 0 C2.97 0.495 2.97 0.495 6 1 C6 1.66 6 2.32 6 3 C8.31 3.33 10.62 3.66 13 4 C13 4.66 13 5.32 13 6 C13.99 5.67 14.98 5.34 16 5 C16 5.99 16 6.98 16 8 C9.411309 6.99899706 5.14914988 5.27269884 0 1 C0 0.67 0 0.34 0 0 Z " fill="#CA3C63" transform="translate(240,188)"/>
<path d="M0 0 C8.57069757 -0.53847315 15.13664668 0.5326946 23 4 C23 4.66 23 5.32 23 6 C21.35 6.33 19.7 6.66 18 7 C17.67 5.68 17.34 4.36 17 3 C16.195625 3.020625 15.39125 3.04125 14.5625 3.0625 C12 3 12 3 11 2 C9.15108054 1.76636119 7.29511969 1.58696365 5.4375 1.4375 C4.42558594 1.35371094 3.41367187 1.26992187 2.37109375 1.18359375 C1.19740234 1.09271484 1.19740234 1.09271484 0 1 C0 0.67 0 0.34 0 0 Z " fill="#DDB49A" transform="translate(380,190)"/>
<path d="M0 0 C1.32 0.66 2.64 1.32 4 2 C3.67 2.66 3.34 3.32 3 4 C0.4375 4.625 0.4375 4.625 -2 5 C-2 5.66 -2 6.32 -2 7 C-3.98 7.33 -5.96 7.66 -8 8 C-8 7.01 -8 6.02 -8 5 C-6.865625 4.54625 -5.73125 4.0925 -4.5625 3.625 C-0.95278308 2.42904194 -0.95278308 2.42904194 0 0 Z " fill="#DB504C" transform="translate(270,251)"/>
<path d="M0 0 C1.60495567 0.11442461 3.20898119 0.24194694 4.8125 0.375 C5.70582031 0.44460937 6.59914063 0.51421875 7.51953125 0.5859375 C10 1 10 1 13 3 C11.329375 3.2165625 11.329375 3.2165625 9.625 3.4375 C6.17857953 3.78372035 6.17857953 3.78372035 4 5 C1.875 4.0625 1.875 4.0625 0 3 C0 2.01 0 1.02 0 0 Z " fill="#E1334C" transform="translate(280,187)"/>
<path d="M0 0 C1.51400391 0.01740234 1.51400391 0.01740234 3.05859375 0.03515625 C4.07050781 0.04417969 5.08242188 0.05320313 6.125 0.0625 C7.29869141 0.07990234 7.29869141 0.07990234 8.49609375 0.09765625 C9.15609375 1.41765625 9.81609375 2.73765625 10.49609375 4.09765625 C8.72453721 3.98336228 6.95383146 3.85582588 5.18359375 3.72265625 C4.19746094 3.65304688 3.21132813 3.5834375 2.1953125 3.51171875 C-0.50390625 3.09765625 -0.50390625 3.09765625 -3.50390625 1.09765625 C-2.50390625 0.09765625 -2.50390625 0.09765625 0 0 Z " fill="#F4494F" transform="translate(316.50390625,224.90234375)"/>
<path d="M0 0 C-3.80208727 3.30616284 -9.83581485 7 -15 7 C-14 4 -14 4 -12.109375 2.83203125 C-4.27810031 -0.55201294 -4.27810031 -0.55201294 0 0 Z " fill="#C85E71" transform="translate(303,242)"/>
<path d="M0 0 C-2.28929053 1.17154293 -4.58118362 2.33738074 -6.875 3.5 C-7.52597656 3.83386719 -8.17695313 4.16773438 -8.84765625 4.51171875 C-13.7734375 7 -13.7734375 7 -16 7 C-15.67 6.01 -15.34 5.02 -15 4 C-13.68 4 -12.36 4 -11 4 C-11 3.01 -11 2.02 -11 1 C-4.03571429 -1.27678571 -4.03571429 -1.27678571 0 0 Z " fill="#DD8E72" transform="translate(368,212)"/>
<path d="M0 0 C8.19256018 -0.63019694 8.19256018 -0.63019694 11.5625 2 C12.036875 2.66 12.51125 3.32 13 4 C7.93437617 4.25328119 3.84241633 3.33583899 -1 2 C-0.67 1.34 -0.34 0.68 0 0 Z " fill="#CE545F" transform="translate(293,189)"/>
<path d="M0 0 C3.3 0.33 6.6 0.66 10 1 C10.33 1.99 10.66 2.98 11 4 C8.36 4.33 5.72 4.66 3 5 C2.67 4.01 2.34 3.02 2 2 C1.34 2 0.68 2 0 2 C0 1.34 0 0.68 0 0 Z " fill="#D32750" transform="translate(257,179)"/>
<path d="M0 0 C4.44495972 -0.1234711 7.80753477 0.60251159 12 2 C11 3 11 3 7.4375 3.0625 C6.303125 3.041875 5.16875 3.02125 4 3 C4 3.66 4 4.32 4 5 C2.68 5 1.36 5 0 5 C0 3.35 0 1.7 0 0 Z " fill="#C61558" transform="translate(215,162)"/>
<path d="M0 0 C1.60597325 0.45196245 3.20972508 0.91182327 4.8125 1.375 C6.15248047 1.75785156 6.15248047 1.75785156 7.51953125 2.1484375 C10 3 10 3 13 5 C9.37 5 5.74 5 2 5 C1.34 3.35 0.68 1.7 0 0 Z " fill="#C95574" transform="translate(254,175)"/>
<path d="M0 0 C0.66 0.33 1.32 0.66 2 1 C1.67 1.33 1.34 1.66 1 2 C1.66 2.66 2.32 3.32 3 4 C1.54618103 4.69699552 0.08677047 5.38233866 -1.375 6.0625 C-2.18710938 6.44535156 -2.99921875 6.82820313 -3.8359375 7.22265625 C-4.55007812 7.47917969 -5.26421875 7.73570312 -6 8 C-6.66 7.67 -7.32 7.34 -8 7 C-5.36 4.69 -2.72 2.38 0 0 Z " fill="#CCADA1" transform="translate(252,262)"/>
<path d="M0 0 C1.65 0 3.3 0 5 0 C5.33 2.31 5.66 4.62 6 7 C5.01 7 4.02 7 3 7 C3 6.34 3 5.68 3 5 C1.68 4.34 0.36 3.68 -1 3 C-0.67 2.01 -0.34 1.02 0 0 Z " fill="#E01750" transform="translate(243,184)"/>
<path d="M0 0 C2.31 0.66 4.62 1.32 7 2 C7.33 3.32 7.66 4.64 8 6 C8.66 6 9.32 6 10 6 C10 6.66 10 7.32 10 8 C10.66 8 11.32 8 12 8 C11.67 8.66 11.34 9.32 11 10 C9.35063952 8.71284028 7.70560953 7.42012981 6.0625 6.125 C5.14597656 5.40570313 4.22945312 4.68640625 3.28515625 3.9453125 C1 2 1 2 0 0 Z " fill="#BA4472" transform="translate(228,178)"/>
<path d="M0 0 C-3.90869534 3.15702316 -7.8614939 6 -13 6 C-13 5.34 -13 4.68 -13 4 C-11.02 3.67 -9.04 3.34 -7 3 C-7 2.34 -7 1.68 -7 1 C-4.53721199 -0.231394 -2.7204945 -0.07159196 0 0 Z " fill="#D1707A" transform="translate(288,249)"/>
<path d="M0 0 C-1.95585325 1.00484204 -3.91476237 2.00373805 -5.875 3 C-6.96554687 3.556875 -8.05609375 4.11375 -9.1796875 4.6875 C-12 6 -12 6 -14 6 C-14 5.34 -14 4.68 -14 4 C-13.34 4 -12.68 4 -12 4 C-12 3.34 -12 2.68 -12 2 C-10.56656 1.46809459 -9.12804633 0.94984742 -7.6875 0.4375 C-6.48673828 0.00244141 -6.48673828 0.00244141 -5.26171875 -0.44140625 C-3 -1 -3 -1 0 0 Z " fill="#D78074" transform="translate(351,220)"/>
<path d="M0 0 C1.32 0.33 2.64 0.66 4 1 C4.33 2.98 4.66 4.96 5 7 C3.35 7.33 1.7 7.66 0 8 C0 5.36 0 2.72 0 0 Z " fill="#F06346" transform="translate(352,209)"/>
<path d="M0 0 C6.36363636 -0.48951049 6.36363636 -0.48951049 9.4375 1.875 C11 4 11 4 11 6 C6.49197399 4.74194623 3.5087188 3.09592835 0 0 Z " fill="#CF697F" transform="translate(270,209)"/>
<path d="M0 0 C0 0.99 0 1.98 0 3 C1.9375006 5.18777466 1.9375006 5.18777466 4 7 C3.01 7.495 3.01 7.495 2 8 C1.34 7.67 0.68 7.34 0 7 C0 6.34 0 5.68 0 5 C-0.66 5 -1.32 5 -2 5 C-2 4.34 -2 3.68 -2 3 C-2.66 3 -3.32 3 -4 3 C-4 2.34 -4 1.68 -4 1 C-4.66 0.67 -5.32 0.34 -6 0 C-2.25 -1.125 -2.25 -1.125 0 0 Z " fill="#CC1C54" transform="translate(240,181)"/>
<path d="M0 0 C3.3 1.65 6.6 3.3 10 5 C8.68 5.99 7.36 6.98 6 8 C4.99403703 7.0479279 3.99538437 6.08812654 3 5.125 C2.443125 4.59132812 1.88625 4.05765625 1.3125 3.5078125 C0 2 0 2 0 0 Z " fill="#AA7C8D" transform="translate(193,146)"/>
<path d="M0 0 C-0.33 0.66 -0.66 1.32 -1 2 C-6.30788029 3.19156496 -10.70936543 2.83536335 -16 2 C-16 1.67 -16 1.34 -16 1 C-13.70952777 0.63818911 -11.41757055 0.28576776 -9.125 -0.0625 C-7.84882813 -0.25972656 -6.57265625 -0.45695313 -5.2578125 -0.66015625 C-2 -1 -2 -1 0 0 Z " fill="#E6A696" transform="translate(370,195)"/>
<path d="M0 0 C1.32 0.33 2.64 0.66 4 1 C4 1.99 4 2.98 4 4 C1.69 4.33 -0.62 4.66 -3 5 C-2.01 3.35 -1.02 1.7 0 0 Z " fill="#E97246" transform="translate(392,193)"/>
<path d="M0 0 C1.98 0 3.96 0 6 0 C6 0.66 6 1.32 6 2 C9.96 2 13.92 2 18 2 C18 2.33 18 2.66 18 3 C15.75059705 3.08119503 13.50035129 3.13927819 11.25 3.1875 C9.99703125 3.22230469 8.7440625 3.25710937 7.453125 3.29296875 C3.85890643 2.98802939 2.55274874 2.45605371 0 0 Z " fill="#D84D4F" transform="translate(308,193)"/>
<path d="M0 0 C2.02045442 0.60183749 4.02111039 1.27306096 6 2 C6.33 2.66 6.66 3.32 7 4 C4.69 4.33 2.38 4.66 0 5 C-0.66 4.01 -1.32 3.02 -2 2 C-1.34 1.34 -0.68 0.68 0 0 Z " fill="#B52C5F" transform="translate(208,155)"/>
<path d="M0 0 C0.66 0.33 1.32 0.66 2 1 C1.67 1.99 1.34 2.98 1 4 C-0.33333333 4.33333333 -1.66666667 4.66666667 -3 5 C-3.33 5.99 -3.66 6.98 -4 8 C-4.66 7.67 -5.32 7.34 -6 7 C-4.77065985 3.31197956 -3.06140622 2.27643027 0 0 Z " fill="#C4526D" transform="translate(292,232)"/>
<path d="M0 0 C8.57142857 0.71428571 8.57142857 0.71428571 12 4 C7.62065881 3.48041715 3.31196609 2.94324258 -1 2 C-0.67 1.34 -0.34 0.68 0 0 Z " fill="#EC3E51" transform="translate(304,224)"/>
<path d="M0 0 C1.46067199 0.45082469 2.91848032 0.91093537 4.375 1.375 C5.18710938 1.63023437 5.99921875 1.88546875 6.8359375 2.1484375 C9 3 9 3 11 5 C8 6 8 6 5.95703125 5.22265625 C5.24933594 4.83980469 4.54164063 4.45695313 3.8125 4.0625 C3.09707031 3.68222656 2.38164062 3.30195313 1.64453125 2.91015625 C1.10183594 2.60980469 0.55914062 2.30945313 0 2 C0 1.34 0 0.68 0 0 Z " fill="#BE4F77" transform="translate(227,164)"/>
<path d="M0 0 C-4.10457614 2.98514628 -6.97745369 3.2954439 -12 3 C-12 2.34 -12 1.68 -12 1 C-3.96428571 -1.27678571 -3.96428571 -1.27678571 0 0 Z " fill="#ED6D41" transform="translate(373,197)"/>
<path d="M0 0 C2.97 0.33 5.94 0.66 9 1 C9.33 1.99 9.66 2.98 10 4 C8.02 4.99 8.02 4.99 6 6 C6 5.01 6 4.02 6 3 C4.02 2.34 2.04 1.68 0 1 C0 0.67 0 0.34 0 0 Z " fill="#D5737A" transform="translate(294,221)"/>
<path d="M0 0 C4.455 0.99 4.455 0.99 9 2 C9 2.66 9 3.32 9 4 C7.02 4.33 5.04 4.66 3 5 C2.67 4.01 2.34 3.02 2 2 C1.34 2 0.68 2 0 2 C0 1.34 0 0.68 0 0 Z " fill="#C91152" transform="translate(229,167)"/>
<path d="M0 0 C2.97 0.495 2.97 0.495 6 1 C5.01 1.495 5.01 1.495 4 2 C4 2.66 4 3.32 4 4 C2.35 3.67 0.7 3.34 -1 3 C-0.67 2.01 -0.34 1.02 0 0 Z " fill="#B04872" transform="translate(201,152)"/>
<path d="M0 0 C2.64 0 5.28 0 8 0 C6.8125 1.5625 6.8125 1.5625 5 3 C2.3125 2.6875 2.3125 2.6875 0 2 C0 1.34 0 0.68 0 0 Z " fill="#BE324B" transform="translate(321,229)"/>
<path d="M0 0 C0.99 0.33 1.98 0.66 3 1 C1.25 3.0625 1.25 3.0625 -1 5 C-3.25 4.75 -3.25 4.75 -5 4 C-2.6875 1.9375 -2.6875 1.9375 0 0 Z " fill="#BB476A" transform="translate(299,227)"/>
<path d="M0 0 C-2.97 1.32 -5.94 2.64 -9 4 C-9 3.01 -9 2.02 -9 1 C-5.19495213 -0.79682816 -4.29399165 -1.07349791 0 0 Z " fill="#C25375" transform="translate(324,233)"/>
<path d="M0 0 C6.625 0.75 6.625 0.75 10 3 C3.47692308 3.36923077 3.47692308 3.36923077 1.0625 1.5 C0.5365625 0.7575 0.5365625 0.7575 0 0 Z " fill="#CA4A63" transform="translate(266,206)"/>
<path d="M0 0 C0.99 0 1.98 0 3 0 C3 0.99 3 1.98 3 3 C2.34 3 1.68 3 1 3 C1 3.66 1 4.32 1 5 C-1.475 4.01 -1.475 4.01 -4 3 C-2.68 2.67 -1.36 2.34 0 2 C0 1.34 0 0.68 0 0 Z " fill="#D12766" transform="translate(238,169)"/>
<path d="M0 0 C0.99 0.33 1.98 0.66 3 1 C3 1.66 3 2.32 3 3 C0.69 3.33 -1.62 3.66 -4 4 C-2.68 2.68 -1.36 1.36 0 0 Z " fill="#C07A6C" transform="translate(256,261)"/>
<path d="M0 0 C0.33 0.99 0.66 1.98 1 3 C-0.96466413 4.06775224 -2.96855359 5.06553465 -5 6 C-5.66 5.67 -6.32 5.34 -7 5 C-4.69 3.35 -2.38 1.7 0 0 Z " fill="#CE7875" transform="translate(269,250)"/>
<path d="M0 0 C-2.8125 2.0625 -2.8125 2.0625 -6 4 C-6.99 3.67 -7.98 3.34 -9 3 C-9 2.34 -9 1.68 -9 1 C-3.375 -1.125 -3.375 -1.125 0 0 Z " fill="#E5544B" transform="translate(335,225)"/>
<path d="M0 0 C2.475 0.495 2.475 0.495 5 1 C5.33 1.99 5.66 2.98 6 4 C3.03 3.505 3.03 3.505 0 3 C0 2.01 0 1.02 0 0 Z " fill="#C3335F" transform="translate(249,174)"/>
<path d="" fill="#DBDBDB" transform="translate(0,0)"/>
</svg>
